<svg id="eUfthGg1AYP1" xmlns="http://www.w3.org/2000/svg" xmlns:xlink="http://www.w3.org/1999/xlink" viewBox="0 0 1000 1000" shape-rendering="geometricPrecision" text-rendering="geometricPrecision"><path d="M785.164124,153.950119c30.549438,7.019028,60.669921,14.033936,90.808227,20.97139c23.16095,5.331375,46.322693,10.663605,69.529846,15.788223c7.956848,1.757034,16.385376,2.397919,22.561463,8.375427c9.591613,9.283188,9.896057,22.407776-.196717,31.914551-7.258361,6.836929-17.043579,6.944595-25.984924,8.881699-18.472961,4.002075-37.062622,7.47937-55.641113,10.976486-20.354798,3.831467-40.769776,7.343429-61.123169,11.181961-14.57074,2.747894-29.056824,5.944885-43.628357,8.688171-18.91272,3.560578-37.895752,6.747895-56.805359,10.324158-16.010498,3.027954-31.94281,6.467102-47.94043,9.565765-16.649963,3.224915-33.34674,6.207642-50.00476,9.391938-18.407776,3.518737-36.776429,7.243988-55.195984,10.698974-18.916931,3.548279-37.892395,6.784943-56.809388,10.3331-16.339386,3.064636-32.619415,6.44458-48.949768,9.558563-18.581543,3.543213-37.364868,6.219971-55.729217,10.647491-13.81958,3.331787-26.069824-1.412109-38.824219-4.260162-25.100525-5.604797-50.19162-11.253662-75.257782-17.009918-19.510589-4.480408-38.960724-9.223786-58.467499-13.721344-35.214615-8.11911-70.450119-16.147675-105.679596-24.202179-15.708931-3.591522-31.417938-7.183258-47.143287-10.701752-2.691399-.602173-5.465325-.835571-8.682045-1.310272c0,1.820709,0,3.457153,0,5.093567c0,33.663818.115394,67.328461-.135628,100.990417-.034119,4.574982,1.815735,6.008454,5.620293,6.880493c18.401703,4.217835,36.770942,8.577088,55.16748,12.817658c27.758209,6.398529,55.52623,12.754547,83.296265,19.101593c23.167602,5.295135,46.338959,10.574066,69.517853,15.81958c32.86969,7.43866,65.877746,14.323975,98.548767,22.549408c10.792938,2.717285,20.432373.168823,30.440216-1.593933c16.689514-2.939484,33.275299-6.465088,49.914978-9.691223c18.722748-3.630066,37.440887-7.287476,56.19046-10.774781c18.921326-3.519226,37.90271-6.717865,56.813049-10.293548c16.008057-3.026886,31.934449-6.483765,47.929688-9.58136c16.650512-3.224518,33.346924-6.211121,50.011047-9.366547c18.736084-3.547699,37.443543-7.247924,56.190918-10.734253c18.923767-3.519104,37.904358-6.73526,56.816895-10.312225c16.008484-3.02774,31.937622-6.472534,47.934509-9.564117c15.051697-2.908966,30.154053-5.554962,45.218994-8.396759c11.20752-2.114197,22.371033-4.465851,33.59082-6.510437c10.756531-1.960205,21.511719-4.642914,32.357911-5.17923c9.44281-.46695,17.376709,4.476074,21.70935,13.384369c4.167359,8.568451,2.331665,16.859497-3.505493,23.837616-4.677856,5.592254-11.694092,7.202545-18.723816,8.533081-23.537903,4.455139-47.002563,9.298309-70.545776,13.724273-19.239197,3.616852-38.578919,6.698487-57.82135,10.299286-16.01233,2.996369-31.920777,6.546173-47.924866,9.589844-18.905884,3.595581-37.877503,6.843811-56.797302,10.367951-15.7099,2.926239-31.388062,6.023498-47.076477,9.064331-16.958374,3.287048-33.909607,6.610901-50.86908,9.892334-18.880554,3.653106-37.765747,7.281738-56.650879,10.911254-17.450012,3.353669-34.898193,6.717011-52.354858,10.035584-24.664276,4.688721-49.309571,9.484406-74.014557,13.948669-13.012573,2.35141-26.081726,5.009797-39.227295,5.77295-7.919708.459777-16.110596-2.121949-24.049713-3.91269-31.597199-7.126953-63.150574-14.448883-94.706177-21.759094-26.797592-6.208008-53.571991-12.516052-80.364044-18.748108-21.720627-5.052398-43.44719-10.079529-65.180252-15.078186-27.761124-6.385071-55.539147-12.69693-83.289269-19.129333-4.082557-.94632-8.361538-1.793061-12.010761-3.71109-8.551973-4.494995-11.920395-12.518311-11.947647-21.673493-.152302-51.161865-.484995-102.329773.177193-153.48352.199485-15.410248,6.893482-22.592423,25.755497-26.163895c18.896888-3.57811,37.763298-7.319076,56.673622-10.823868c18.928154-3.508087,37.920295-6.673721,56.835426-10.248428c16.007217-3.025131,31.923889-6.526795,47.918381-9.622498c16.651504-3.222854,33.358062-6.160186,50.022644-9.31697c18.734802-3.548966,37.431946-7.298356,56.177948-10.786011c18.922241-3.520447,37.909485-6.693466,56.821075-10.268112c16.007904-3.025818,31.929016-6.50824,47.924103-9.604798c16.651001-3.22351,33.353149-6.181823,50.017364-9.338287c18.735047-3.548706,37.436219-7.27768,56.182465-10.765099c18.921692-3.520042,37.883179-6.825462,56.820374-10.262733c3.044555-.552612,6.088867-1.172272,9.072509-1.984253c11.990174-3.263062,22.920716,2.072403,34.116517,4.437027c26.115356,5.515747,52.097473,11.666336,78.114746,17.641525c19.036987,4.372071,38.045959,8.866104,57.063415,13.322907c6.331482,1.483795,12.650513,3.020782,19.396546,4.570892Z" fill="#5a4ae3"/><path d="M86.574371,482.270172c27.362305,6.344818,54.331101,12.540314,81.320893,18.642853c22.22969,5.026337,44.473953,9.989166,66.730209,14.896545c33.709396,7.432679,67.445114,14.746277,101.149216,22.202881c17.321075,3.832092,34.469574,8.669922,51.950683,11.455078c8.337677,1.328369,17.349671-.558716,25.914948-1.894897c16.107879-2.512879,32.11737-5.660034,48.159881-8.586853c12.676026-2.312622,25.340088-4.690552,38.009644-7.038635c14.267487-2.644349,28.542023-5.251465,42.800812-7.941834c13.775085-2.599121,27.513427-5.397644,41.305969-7.898498c13.80896-2.503846,27.687927-4.622132,41.493896-7.141175c13.467164-2.457214,26.854187-5.354248,40.324219-7.79425c19.427796-3.519226,38.917114-6.698822,58.345886-10.213166c17.164063-3.104675,34.264649-6.55896,51.423462-9.694061c17.493897-3.196319,35.041504-6.098541,52.534363-9.300262c18.762451-3.434174,37.47345-7.14975,56.235413-10.586762c14.125122-2.587616,28.305542-4.872253,42.441467-7.402557c8.34198-1.493225,16.630005-3.287048,24.970276-4.790344c8.300842-1.496186,14.655395,1.97174,19.913757,9.269622c5.093811,7.069428,4.939087,15.060883.678101,22.704285-5.021912,9.008331-14.152588,11.003327-23.141602,12.778961-20.950195,4.138336-41.941589,8.072907-62.941711,11.951966-20.531738,3.79248-41.109986,7.332611-61.639404,11.137176-15.062378,2.791443-30.063721,5.91095-45.119568,8.739075-16.831055,3.16156-33.702271,6.109253-50.539063,9.241089-19.232849,3.577453-38.430237,7.346862-57.67395,10.863586-19.097656,3.48999-38.250671,6.677429-57.347778,10.169922-16.197144,2.962097-32.341492,6.211304-48.523621,9.256958-13.941345,2.623779-27.911255,5.095703-41.853394,7.715149-15.379669,2.889526-30.730377,5.933777-46.115081,8.795837-18.600098,3.460144-37.227417,6.773621-55.832764,10.205872-6.408844,1.182312-12.758423,3.334778-19.187714,3.563293-5.729827.203736-11.583435-1.397583-17.293609-2.617859-21.334809-4.559387-42.643738-9.241821-63.942047-13.969604-18.911011-4.197876-37.786805-8.554138-56.693146-12.773499-22.722748-5.071106-45.459961-10.077575-68.193482-15.100463-22.734115-5.023194-45.470596-10.035523-68.20758-15.045655-14.785683-3.257995-29.568115-6.53125-44.367966-9.723755-2.16687-.467407-4.422447-.52362-7.317543-.845825-.119491,1.642578-.331016,3.201538-.331886,4.760681-.018952,33.830384.049431,67.661011-.099732,101.490723-.01754,3.977844,1.462944,5.490295,5.137658,6.308228c24.945983,5.552673,49.856239,11.266052,74.773979,16.945434c1.70578.388855,3.378311.923645,4.985763,1.368225c0,15.640381,0,30.939148,0,46.639771-9.585693-2.100891-18.926696-4.080078-28.235336-6.201233-27.454063-6.255921-54.874855-12.659485-82.352722-18.808472-9.525513-2.131653-17.865921-5.768005-21.835812-15.370544-1.400013-3.386414-2.279291-7.256287-2.289739-10.908631-.14539-50.82843-.243475-101.658142.004356-152.485809.06134-12.580566,5.354107-21.718781,17.005964-24.457428c5.18721-1.219208,11.238068.706268,16.799755,1.731567c8.803368,1.622925,17.525025,3.689118,26.66568,5.757294Z" fill="#5a4ae3"/><path d="M715.02179,696.999878c-24.104493,4.656006-47.761048,9.353393-71.437317,13.949402-17.439881,3.385437-34.89441,6.698913-52.362549,9.935241-22.130799,4.100281-44.298035,8.0047-66.418335,12.160157-12.80838,2.406006-25.527496,5.286804-38.336212,7.690674-18.915436,3.549926-37.881928,6.826965-56.812775,10.296264-10.094696,1.849976-20.095123,4.495362-30.265533,5.536255-5.28891.541321-10.903717-1.403686-16.286286-2.606079-16.046325-3.584839-32.050964-7.356323-48.068298-11.07019-.27475-.06366-.50473-.320374-1.029755-.669129c0-14.134399-.01297-28.450622.013458-42.766846.004151-2.249145.227265-3.487487,3.471467-2.825378c19.964782,4.074829,39.998291,7.816284,60.031982,11.544861c1.948395.36261,4.101196.132019,6.078766-.244873c20.490021-3.905213,40.951172-7.962097,61.444641-11.848694c26.750824-5.073303,53.519409-10.05365,80.28833-15.030701c19.876343-3.695434,39.757996-7.363586,59.650757-10.968994c26.161804-4.741699,52.358765-9.291992,78.49823-14.152405c16.493835-3.066833,32.884521-6.686035,49.368957-9.80664c15.22583-2.882202,30.534424-5.325684,45.771668-8.150452c20.673889-3.832519,41.297973-7.934509,61.974487-11.752685c19.087708-3.524842,38.231873-6.743409,57.322022-10.255616c14.745849-2.713012,29.539001-5.270263,44.141418-8.633423c14.768555-3.401428,24.339478,2.268433,29.76416,10.584778c8.276428,12.688355,1.3927,29.241333-13.766296,32.852112-15.838989,3.772827-31.999146,6.192505-48.010437,9.248291-17.933777,3.422791-35.85437,6.914307-53.787476,10.34082-15.212158,2.906495-30.440613,5.727784-45.649109,8.653016-11.36029,2.184997-22.680664,4.581726-34.053894,6.695251-18.921325,3.515991-37.871643,6.87616-56.806884,10.317566-1.441407.261902-2.860352.647339-4.729187.977417Z" fill="#5a4ae3"/><path d="M296,752c0,45.082947,0,89.665955,0,135.487854-5.726318-6.101013-10.7435-11.242493-15.527557-16.592468-6.801331-7.605896-13.423981-15.371521-20.137268-23.056397-4.115723-4.711548-8.362046-9.314026-12.33992-14.138427-1.706162-2.069275-2.761902-1.69397-4.898346-.454468-15.237732,8.840881-30.613953,17.443054-45.951279,26.111999-.404801.22876-.868286.353699-1.745667.702515c0-78.408203,0-156.538941,0-235.365967C228.956558,632.311279,262.339966,639.888611,296,647.528748c0,34.709716,0,69.340454,0,104.471252Z" fill="#5a4ae3"/></svg>
