<svg version="1.1" id="Layer_1" xmlns="http://www.w3.org/2000/svg" xmlns:xlink="http://www.w3.org/1999/xlink" x="0px" y="0px"
	 width="100%" viewBox="0 0 1000 1000" enable-background="new 0 0 1000 1000" xml:space="preserve">
<path fill="#000000" opacity="1.000000" stroke="none" 
	d="
M535.000000,1001.000000 
	C356.666656,1001.000000 178.833328,1001.000000 1.000000,1001.000000 
	C1.000000,667.666687 1.000000,334.333344 1.000000,1.000000 
	C334.333344,1.000000 667.666687,1.000000 1001.000000,1.000000 
	C1001.000000,334.333344 1001.000000,667.666687 1001.000000,1001.000000 
	C845.833313,1001.000000 690.666687,1001.000000 535.000000,1001.000000 
M784.742798,153.912674 
	C778.418091,152.400009 772.099060,150.863022 765.767578,149.379227 
	C746.750122,144.922424 727.741150,140.428391 708.704163,136.056320 
	C682.686890,130.081131 656.704773,123.930542 630.589417,118.414795 
	C619.393616,116.050171 608.463074,110.714706 596.472900,113.977768 
	C593.489258,114.789749 590.444946,115.409409 587.400391,115.962021 
	C568.463196,119.399292 549.501709,122.704712 530.580017,126.224754 
	C511.833771,129.712173 493.132599,133.441147 474.397552,136.989853 
	C457.733337,140.146317 441.031189,143.104630 424.380188,146.328140 
	C408.385101,149.424698 392.463989,152.907120 376.456085,155.932938 
	C357.544495,159.507584 338.557251,162.680603 319.635010,166.201050 
	C300.889008,169.688705 282.191864,173.438095 263.457062,176.987061 
	C246.792480,180.143845 230.085922,183.081177 213.434418,186.304031 
	C197.439926,189.399734 181.523254,192.901398 165.516037,195.926529 
	C146.600906,199.501236 127.608765,202.666870 108.680611,206.174957 
	C89.770287,209.679749 70.903877,213.420715 52.006989,216.998825 
	C33.144974,220.570297 26.450977,227.752472 26.251492,243.162720 
	C25.589304,294.316467 25.921997,345.484375 26.074299,396.646240 
	C26.101551,405.801422 29.469973,413.824738 38.021946,418.319733 
	C41.671169,420.237762 45.950150,421.084503 50.032707,422.030823 
	C77.782829,428.463226 105.560852,434.775085 133.321976,441.160156 
	C155.055038,446.158813 176.781601,451.185944 198.502228,456.238342 
	C225.294281,462.470398 252.068680,468.778442 278.866272,474.986450 
	C310.421875,482.296661 341.975250,489.618591 373.572449,496.745544 
	C381.511566,498.536285 389.702454,501.118011 397.622162,500.658234 
	C410.767731,499.895081 423.836884,497.236694 436.849457,494.885284 
	C461.554443,490.421021 486.199738,485.625336 510.864014,480.936615 
	C528.320679,477.618042 545.768860,474.254700 563.218872,470.901031 
	C582.104004,467.271515 600.989197,463.642883 619.869751,459.989777 
	C636.829224,456.708344 653.780457,453.384491 670.738831,450.097443 
	C686.427246,447.056610 702.105408,443.959351 717.815308,441.033112 
	C736.735107,437.508972 755.706726,434.260742 774.612610,430.665161 
	C790.616699,427.621490 806.525146,424.071686 822.537476,421.075317 
	C841.779907,417.474518 861.119629,414.392883 880.358826,410.776031 
	C903.902039,406.350067 927.366699,401.506897 950.904602,397.051758 
	C957.934326,395.721222 964.950562,394.110931 969.628418,388.518677 
	C975.465576,381.540558 977.301270,373.249512 973.133911,364.681061 
	C968.801270,355.772766 960.867371,350.829742 951.424561,351.296692 
	C940.578369,351.833008 929.823181,354.515717 919.066650,356.475922 
	C907.846863,358.520508 896.683350,360.872162 885.475830,362.986359 
	C870.410889,365.828156 855.308533,368.474152 840.256836,371.383118 
	C824.259949,374.474701 808.330811,377.919495 792.322327,380.947235 
	C773.409790,384.524200 754.429199,387.740356 735.505432,391.259460 
	C716.758057,394.745789 698.050598,398.446014 679.314514,401.993713 
	C662.650391,405.149139 645.953979,408.135742 629.303467,411.360260 
	C613.308228,414.457855 597.381836,417.914734 581.373779,420.941620 
	C562.463440,424.517303 543.482056,427.715942 524.560730,431.235168 
	C505.811157,434.722473 487.093018,438.379883 468.370270,442.009949 
	C451.730591,445.236084 435.144806,448.761688 418.455292,451.701172 
	C408.447449,453.463928 398.808014,456.012390 388.015076,453.295105 
	C355.344055,445.069672 322.335999,438.184357 289.466309,430.745697 
	C266.287415,425.500183 243.116058,420.221252 219.948456,414.926117 
	C192.178421,408.579071 164.410400,402.223053 136.652191,395.824524 
	C118.255653,391.583954 99.886414,387.224701 81.484711,383.006866 
	C77.680153,382.134827 75.830299,380.701355 75.864418,376.126373 
	C76.115440,342.464417 76.000046,308.799774 76.000046,275.135956 
	C76.000046,273.499542 76.000046,271.863098 76.000046,270.042389 
	C79.216766,270.517090 81.990692,270.750488 84.682091,271.352661 
	C100.407440,274.871155 116.116447,278.462891 131.825378,282.054413 
	C167.054855,290.108917 202.290359,298.137482 237.504974,306.256592 
	C257.011749,310.754150 276.461884,315.497528 295.972473,319.977936 
	C321.038635,325.734192 346.129730,331.383057 371.230255,336.987854 
	C383.984650,339.835907 396.234894,344.579803 410.054474,341.248016 
	C428.418823,336.820496 447.202148,334.143738 465.783691,330.600525 
	C482.114044,327.486542 498.394073,324.106598 514.733459,321.041962 
	C533.650452,317.493805 552.625916,314.257141 571.542847,310.708862 
	C589.962402,307.253876 608.331055,303.528625 626.738831,300.009888 
	C643.396851,296.825592 660.093628,293.842865 676.743591,290.617950 
	C692.741211,287.519287 708.673523,284.080139 724.684021,281.052185 
	C743.593628,277.475922 762.576660,274.288605 781.489380,270.728027 
	C796.060913,267.984741 810.546997,264.787750 825.117737,262.039856 
	C845.471130,258.201324 865.886108,254.689362 886.240906,250.857895 
	C904.819397,247.360779 923.409058,243.883484 941.882019,239.881409 
	C950.823364,237.944305 960.608582,237.836639 967.866943,230.999710 
	C977.959717,221.492935 977.655273,208.368347 968.063660,199.085159 
	C961.887573,193.107651 953.459045,192.466766 945.502197,190.709732 
	C922.295044,185.585114 899.133301,180.252884 875.972351,174.921509 
	C845.834045,167.984055 815.713562,160.969147 784.742798,153.912674 
M86.189941,482.080627 
	C77.433716,480.201996 68.712059,478.135803 59.908691,476.512878 
	C54.347004,475.487579 48.296146,473.562103 43.108936,474.781311 
	C31.457079,477.519958 26.164312,486.658173 26.102972,499.238739 
	C25.855141,550.066406 25.953226,600.896118 26.098616,651.724548 
	C26.109064,655.376892 26.988342,659.246765 28.388355,662.633179 
	C32.358246,672.235718 40.698654,675.872070 50.224167,678.003723 
	C77.702034,684.152710 105.122826,690.556274 132.576889,696.812195 
	C141.885529,698.933350 151.226532,700.912537 160.812225,703.013428 
	C160.812225,687.312805 160.812225,672.014038 160.812225,656.373657 
	C159.204773,655.929077 157.532242,655.394287 155.826462,655.005432 
	C130.908722,649.326050 105.998466,643.612671 81.052483,638.059998 
	C77.377769,637.242065 75.897285,635.729614 75.914825,631.751770 
	C76.063988,597.922058 75.995605,564.091431 76.014557,530.261047 
	C76.015427,528.701904 76.226952,527.142944 76.346443,525.500366 
	C79.241539,525.822571 81.497116,525.878784 83.663986,526.346191 
	C98.463837,529.538696 113.246269,532.811951 128.031952,536.069946 
	C150.768936,541.080078 173.505417,546.092407 196.239532,551.115601 
	C218.973053,556.138489 241.710266,561.144958 264.433014,566.216064 
	C283.339355,570.435425 302.215149,574.791687 321.126160,578.989563 
	C342.424469,583.717346 363.733398,588.399780 385.068207,592.959167 
	C390.778381,594.179443 396.631989,595.780762 402.361816,595.577026 
	C408.791107,595.348511 415.140686,593.196045 421.549530,592.013733 
	C440.154877,588.581482 458.782196,585.268005 477.382294,581.807861 
	C492.766998,578.945801 508.117706,575.901550 523.497375,573.012024 
	C537.439514,570.392578 551.409424,567.920654 565.350769,565.296875 
	C581.532898,562.251221 597.677246,559.002014 613.874390,556.039917 
	C632.971497,552.547424 652.124512,549.359985 671.222168,545.869995 
	C690.465881,542.353271 709.663269,538.583862 728.896118,535.006409 
	C745.732910,531.874573 762.604126,528.926880 779.435181,525.765320 
	C794.491028,522.937195 809.492371,519.817688 824.554749,517.026245 
	C845.084167,513.221680 865.662415,509.681549 886.194153,505.889069 
	C907.194275,502.010010 928.185669,498.075439 949.135864,493.937103 
	C958.124878,492.161469 967.255554,490.166473 972.277466,481.158142 
	C976.538452,473.514740 976.693176,465.523285 971.599365,458.453857 
	C966.341003,451.155975 959.986450,447.688049 951.685608,449.184235 
	C943.345337,450.687531 935.057312,452.481354 926.715332,453.974579 
	C912.579407,456.504883 898.398987,458.789520 884.273865,461.377136 
	C865.511902,464.814148 846.800903,468.529724 828.038452,471.963898 
	C810.545593,475.165619 792.997986,478.067841 775.504089,481.264160 
	C758.345276,484.399261 741.244690,487.853546 724.080627,490.958221 
	C704.651855,494.472565 685.162537,497.652161 665.734741,501.171387 
	C652.264709,503.611389 638.877686,506.508423 625.410522,508.965637 
	C611.604553,511.484680 597.725586,513.602966 583.916626,516.106812 
	C570.124084,518.607666 556.385742,521.406189 542.610657,524.005310 
	C528.351868,526.695679 514.077332,529.302795 499.809845,531.947144 
	C487.140289,534.295227 474.476227,536.673157 461.800201,538.985779 
	C445.757690,541.912598 429.748199,545.059753 413.640320,547.572632 
	C405.075043,548.908813 396.063049,550.795898 387.725372,549.467529 
	C370.244263,546.682373 353.095764,541.844543 335.774689,538.012451 
	C302.070587,530.555847 268.334869,523.242249 234.625473,515.809570 
	C212.369217,510.902191 190.124954,505.939362 167.895264,500.913025 
	C140.905472,494.810486 113.936676,488.614990 86.189941,482.080627 
M715.461243,696.997803 
	C716.890625,696.669800 718.309570,696.284363 719.750977,696.022461 
	C738.686218,692.581055 757.636536,689.220886 776.557861,685.704895 
	C787.931091,683.591370 799.251465,681.194641 810.611755,679.009644 
	C825.820251,676.084412 841.048706,673.263123 856.260864,670.356628 
	C874.193970,666.930115 892.114563,663.438599 910.048340,660.015808 
	C926.059631,656.960022 942.219788,654.540344 958.058777,650.767517 
	C973.217773,647.156738 980.101501,630.603760 971.825073,617.915405 
	C966.400391,609.599060 956.829468,603.929199 942.060913,607.330627 
	C927.458496,610.693787 912.665344,613.251038 897.919495,615.964050 
	C878.829346,619.476257 859.685181,622.694824 840.597473,626.219666 
	C819.920959,630.037842 799.296875,634.139832 778.622986,637.972351 
	C763.385742,640.797119 748.077148,643.240601 732.851318,646.122803 
	C716.366882,649.243408 699.976196,652.862610 683.482361,655.929443 
	C657.342896,660.789856 631.145935,665.340149 604.984131,670.081848 
	C585.091370,673.687256 565.209717,677.355408 545.333374,681.050842 
	C518.564453,686.027893 491.795868,691.008240 465.045044,696.081543 
	C444.551575,699.968140 424.090424,704.025024 403.600403,707.930237 
	C401.622833,708.307129 399.470032,708.537720 397.521637,708.175110 
	C377.487946,704.446533 357.454437,700.705078 337.489655,696.630249 
	C334.245453,695.968140 334.022339,697.206482 334.018188,699.455627 
	C333.991760,713.771851 334.004730,728.088074 334.004730,742.222473 
	C334.529755,742.571228 334.759735,742.827942 335.034485,742.891602 
	C351.051819,746.605469 367.056458,750.376953 383.102783,753.961792 
	C388.485352,755.164185 394.100159,757.109192 399.389069,756.567871 
	C409.559479,755.526978 419.559906,752.881592 429.654602,751.031616 
	C448.585449,747.562317 467.551941,744.285278 486.467377,740.735352 
	C499.276093,738.331482 511.995209,735.450684 524.803589,733.044678 
	C546.923889,728.889221 569.091125,724.984802 591.221924,720.884521 
	C608.690063,717.648193 626.144592,714.334717 643.584473,710.949280 
	C667.260742,706.353271 690.917297,701.655884 715.461243,696.997803 
M296.000000,751.500000 
	C296.000000,716.869202 296.000000,682.238464 296.000000,647.528748 
	C262.339966,639.888611 228.956558,632.311279 195.399963,624.694641 
	C195.399963,703.521667 195.399963,781.652405 195.399963,860.060608 
	C196.277344,859.711792 196.740829,859.586853 197.145630,859.358093 
	C212.482956,850.689148 227.859177,842.086975 243.096909,833.246094 
	C245.233353,832.006592 246.289093,831.631287 247.995255,833.700562 
	C251.973129,838.524963 256.219452,843.127441 260.335175,847.838989 
	C267.048462,855.523865 273.671112,863.289490 280.472443,870.895386 
	C285.256500,876.245361 290.273682,881.386841 296.000000,887.487854 
	C296.000000,841.665955 296.000000,797.082947 296.000000,751.500000 
z"/>
<path fill="#5A4AE3" opacity="1.000000" stroke="none" 
	d="
M785.164124,153.950119 
	C815.713562,160.969147 845.834045,167.984055 875.972351,174.921509 
	C899.133301,180.252884 922.295044,185.585114 945.502197,190.709732 
	C953.459045,192.466766 961.887573,193.107651 968.063660,199.085159 
	C977.655273,208.368347 977.959717,221.492935 967.866943,230.999710 
	C960.608582,237.836639 950.823364,237.944305 941.882019,239.881409 
	C923.409058,243.883484 904.819397,247.360779 886.240906,250.857895 
	C865.886108,254.689362 845.471130,258.201324 825.117737,262.039856 
	C810.546997,264.787750 796.060913,267.984741 781.489380,270.728027 
	C762.576660,274.288605 743.593628,277.475922 724.684021,281.052185 
	C708.673523,284.080139 692.741211,287.519287 676.743591,290.617950 
	C660.093628,293.842865 643.396851,296.825592 626.738831,300.009888 
	C608.331055,303.528625 589.962402,307.253876 571.542847,310.708862 
	C552.625916,314.257141 533.650452,317.493805 514.733459,321.041962 
	C498.394073,324.106598 482.114044,327.486542 465.783691,330.600525 
	C447.202148,334.143738 428.418823,336.820496 410.054474,341.248016 
	C396.234894,344.579803 383.984650,339.835907 371.230255,336.987854 
	C346.129730,331.383057 321.038635,325.734192 295.972473,319.977936 
	C276.461884,315.497528 257.011749,310.754150 237.504974,306.256592 
	C202.290359,298.137482 167.054855,290.108917 131.825378,282.054413 
	C116.116447,278.462891 100.407440,274.871155 84.682091,271.352661 
	C81.990692,270.750488 79.216766,270.517090 76.000046,270.042389 
	C76.000046,271.863098 76.000046,273.499542 76.000046,275.135956 
	C76.000046,308.799774 76.115440,342.464417 75.864418,376.126373 
	C75.830299,380.701355 77.680153,382.134827 81.484711,383.006866 
	C99.886414,387.224701 118.255653,391.583954 136.652191,395.824524 
	C164.410400,402.223053 192.178421,408.579071 219.948456,414.926117 
	C243.116058,420.221252 266.287415,425.500183 289.466309,430.745697 
	C322.335999,438.184357 355.344055,445.069672 388.015076,453.295105 
	C398.808014,456.012390 408.447449,453.463928 418.455292,451.701172 
	C435.144806,448.761688 451.730591,445.236084 468.370270,442.009949 
	C487.093018,438.379883 505.811157,434.722473 524.560730,431.235168 
	C543.482056,427.715942 562.463440,424.517303 581.373779,420.941620 
	C597.381836,417.914734 613.308228,414.457855 629.303467,411.360260 
	C645.953979,408.135742 662.650391,405.149139 679.314514,401.993713 
	C698.050598,398.446014 716.758057,394.745789 735.505432,391.259460 
	C754.429199,387.740356 773.409790,384.524200 792.322327,380.947235 
	C808.330811,377.919495 824.259949,374.474701 840.256836,371.383118 
	C855.308533,368.474152 870.410889,365.828156 885.475830,362.986359 
	C896.683350,360.872162 907.846863,358.520508 919.066650,356.475922 
	C929.823181,354.515717 940.578369,351.833008 951.424561,351.296692 
	C960.867371,350.829742 968.801270,355.772766 973.133911,364.681061 
	C977.301270,373.249512 975.465576,381.540558 969.628418,388.518677 
	C964.950562,394.110931 957.934326,395.721222 950.904602,397.051758 
	C927.366699,401.506897 903.902039,406.350067 880.358826,410.776031 
	C861.119629,414.392883 841.779907,417.474518 822.537476,421.075317 
	C806.525146,424.071686 790.616699,427.621490 774.612610,430.665161 
	C755.706726,434.260742 736.735107,437.508972 717.815308,441.033112 
	C702.105408,443.959351 686.427246,447.056610 670.738831,450.097443 
	C653.780457,453.384491 636.829224,456.708344 619.869751,459.989777 
	C600.989197,463.642883 582.104004,467.271515 563.218872,470.901031 
	C545.768860,474.254700 528.320679,477.618042 510.864014,480.936615 
	C486.199738,485.625336 461.554443,490.421021 436.849457,494.885284 
	C423.836884,497.236694 410.767731,499.895081 397.622162,500.658234 
	C389.702454,501.118011 381.511566,498.536285 373.572449,496.745544 
	C341.975250,489.618591 310.421875,482.296661 278.866272,474.986450 
	C252.068680,468.778442 225.294281,462.470398 198.502228,456.238342 
	C176.781601,451.185944 155.055038,446.158813 133.321976,441.160156 
	C105.560852,434.775085 77.782829,428.463226 50.032707,422.030823 
	C45.950150,421.084503 41.671169,420.237762 38.021946,418.319733 
	C29.469973,413.824738 26.101551,405.801422 26.074299,396.646240 
	C25.921997,345.484375 25.589304,294.316467 26.251492,243.162720 
	C26.450977,227.752472 33.144974,220.570297 52.006989,216.998825 
	C70.903877,213.420715 89.770287,209.679749 108.680611,206.174957 
	C127.608765,202.666870 146.600906,199.501236 165.516037,195.926529 
	C181.523254,192.901398 197.439926,189.399734 213.434418,186.304031 
	C230.085922,183.081177 246.792480,180.143845 263.457062,176.987061 
	C282.191864,173.438095 300.889008,169.688705 319.635010,166.201050 
	C338.557251,162.680603 357.544495,159.507584 376.456085,155.932938 
	C392.463989,152.907120 408.385101,149.424698 424.380188,146.328140 
	C441.031189,143.104630 457.733337,140.146317 474.397552,136.989853 
	C493.132599,133.441147 511.833771,129.712173 530.580017,126.224754 
	C549.501709,122.704712 568.463196,119.399292 587.400391,115.962021 
	C590.444946,115.409409 593.489258,114.789749 596.472900,113.977768 
	C608.463074,110.714706 619.393616,116.050171 630.589417,118.414795 
	C656.704773,123.930542 682.686890,130.081131 708.704163,136.056320 
	C727.741150,140.428391 746.750122,144.922424 765.767578,149.379227 
	C772.099060,150.863022 778.418091,152.400009 785.164124,153.950119 
z"/>
<path fill="#5A4AE3" opacity="1.000000" stroke="none" 
	d="
M86.574371,482.270172 
	C113.936676,488.614990 140.905472,494.810486 167.895264,500.913025 
	C190.124954,505.939362 212.369217,510.902191 234.625473,515.809570 
	C268.334869,523.242249 302.070587,530.555847 335.774689,538.012451 
	C353.095764,541.844543 370.244263,546.682373 387.725372,549.467529 
	C396.063049,550.795898 405.075043,548.908813 413.640320,547.572632 
	C429.748199,545.059753 445.757690,541.912598 461.800201,538.985779 
	C474.476227,536.673157 487.140289,534.295227 499.809845,531.947144 
	C514.077332,529.302795 528.351868,526.695679 542.610657,524.005310 
	C556.385742,521.406189 570.124084,518.607666 583.916626,516.106812 
	C597.725586,513.602966 611.604553,511.484680 625.410522,508.965637 
	C638.877686,506.508423 652.264709,503.611389 665.734741,501.171387 
	C685.162537,497.652161 704.651855,494.472565 724.080627,490.958221 
	C741.244690,487.853546 758.345276,484.399261 775.504089,481.264160 
	C792.997986,478.067841 810.545593,475.165619 828.038452,471.963898 
	C846.800903,468.529724 865.511902,464.814148 884.273865,461.377136 
	C898.398987,458.789520 912.579407,456.504883 926.715332,453.974579 
	C935.057312,452.481354 943.345337,450.687531 951.685608,449.184235 
	C959.986450,447.688049 966.341003,451.155975 971.599365,458.453857 
	C976.693176,465.523285 976.538452,473.514740 972.277466,481.158142 
	C967.255554,490.166473 958.124878,492.161469 949.135864,493.937103 
	C928.185669,498.075439 907.194275,502.010010 886.194153,505.889069 
	C865.662415,509.681549 845.084167,513.221680 824.554749,517.026245 
	C809.492371,519.817688 794.491028,522.937195 779.435181,525.765320 
	C762.604126,528.926880 745.732910,531.874573 728.896118,535.006409 
	C709.663269,538.583862 690.465881,542.353271 671.222168,545.869995 
	C652.124512,549.359985 632.971497,552.547424 613.874390,556.039917 
	C597.677246,559.002014 581.532898,562.251221 565.350769,565.296875 
	C551.409424,567.920654 537.439514,570.392578 523.497375,573.012024 
	C508.117706,575.901550 492.766998,578.945801 477.382294,581.807861 
	C458.782196,585.268005 440.154877,588.581482 421.549530,592.013733 
	C415.140686,593.196045 408.791107,595.348511 402.361816,595.577026 
	C396.631989,595.780762 390.778381,594.179443 385.068207,592.959167 
	C363.733398,588.399780 342.424469,583.717346 321.126160,578.989563 
	C302.215149,574.791687 283.339355,570.435425 264.433014,566.216064 
	C241.710266,561.144958 218.973053,556.138489 196.239532,551.115601 
	C173.505417,546.092407 150.768936,541.080078 128.031952,536.069946 
	C113.246269,532.811951 98.463837,529.538696 83.663986,526.346191 
	C81.497116,525.878784 79.241539,525.822571 76.346443,525.500366 
	C76.226952,527.142944 76.015427,528.701904 76.014557,530.261047 
	C75.995605,564.091431 76.063988,597.922058 75.914825,631.751770 
	C75.897285,635.729614 77.377769,637.242065 81.052483,638.059998 
	C105.998466,643.612671 130.908722,649.326050 155.826462,655.005432 
	C157.532242,655.394287 159.204773,655.929077 160.812225,656.373657 
	C160.812225,672.014038 160.812225,687.312805 160.812225,703.013428 
	C151.226532,700.912537 141.885529,698.933350 132.576889,696.812195 
	C105.122826,690.556274 77.702034,684.152710 50.224167,678.003723 
	C40.698654,675.872070 32.358246,672.235718 28.388355,662.633179 
	C26.988342,659.246765 26.109064,655.376892 26.098616,651.724548 
	C25.953226,600.896118 25.855141,550.066406 26.102972,499.238739 
	C26.164312,486.658173 31.457079,477.519958 43.108936,474.781311 
	C48.296146,473.562103 54.347004,475.487579 59.908691,476.512878 
	C68.712059,478.135803 77.433716,480.201996 86.574371,482.270172 
z"/>
<path fill="#5A4AE3" opacity="1.000000" stroke="none" 
	d="
M715.021790,696.999878 
	C690.917297,701.655884 667.260742,706.353271 643.584473,710.949280 
	C626.144592,714.334717 608.690063,717.648193 591.221924,720.884521 
	C569.091125,724.984802 546.923889,728.889221 524.803589,733.044678 
	C511.995209,735.450684 499.276093,738.331482 486.467377,740.735352 
	C467.551941,744.285278 448.585449,747.562317 429.654602,751.031616 
	C419.559906,752.881592 409.559479,755.526978 399.389069,756.567871 
	C394.100159,757.109192 388.485352,755.164185 383.102783,753.961792 
	C367.056458,750.376953 351.051819,746.605469 335.034485,742.891602 
	C334.759735,742.827942 334.529755,742.571228 334.004730,742.222473 
	C334.004730,728.088074 333.991760,713.771851 334.018188,699.455627 
	C334.022339,697.206482 334.245453,695.968140 337.489655,696.630249 
	C357.454437,700.705078 377.487946,704.446533 397.521637,708.175110 
	C399.470032,708.537720 401.622833,708.307129 403.600403,707.930237 
	C424.090424,704.025024 444.551575,699.968140 465.045044,696.081543 
	C491.795868,691.008240 518.564453,686.027893 545.333374,681.050842 
	C565.209717,677.355408 585.091370,673.687256 604.984131,670.081848 
	C631.145935,665.340149 657.342896,660.789856 683.482361,655.929443 
	C699.976196,652.862610 716.366882,649.243408 732.851318,646.122803 
	C748.077148,643.240601 763.385742,640.797119 778.622986,637.972351 
	C799.296875,634.139832 819.920959,630.037842 840.597473,626.219666 
	C859.685181,622.694824 878.829346,619.476257 897.919495,615.964050 
	C912.665344,613.251038 927.458496,610.693787 942.060913,607.330627 
	C956.829468,603.929199 966.400391,609.599060 971.825073,617.915405 
	C980.101501,630.603760 973.217773,647.156738 958.058777,650.767517 
	C942.219788,654.540344 926.059631,656.960022 910.048340,660.015808 
	C892.114563,663.438599 874.193970,666.930115 856.260864,670.356628 
	C841.048706,673.263123 825.820251,676.084412 810.611755,679.009644 
	C799.251465,681.194641 787.931091,683.591370 776.557861,685.704895 
	C757.636536,689.220886 738.686218,692.581055 719.750977,696.022461 
	C718.309570,696.284363 716.890625,696.669800 715.021790,696.999878 
z"/>
<path fill="#5A4AE3" opacity="1.000000" stroke="none" 
	d="
M296.000000,752.000000 
	C296.000000,797.082947 296.000000,841.665955 296.000000,887.487854 
	C290.273682,881.386841 285.256500,876.245361 280.472443,870.895386 
	C273.671112,863.289490 267.048462,855.523865 260.335175,847.838989 
	C256.219452,843.127441 251.973129,838.524963 247.995255,833.700562 
	C246.289093,831.631287 245.233353,832.006592 243.096909,833.246094 
	C227.859177,842.086975 212.482956,850.689148 197.145630,859.358093 
	C196.740829,859.586853 196.277344,859.711792 195.399963,860.060608 
	C195.399963,781.652405 195.399963,703.521667 195.399963,624.694641 
	C228.956558,632.311279 262.339966,639.888611 296.000000,647.528748 
	C296.000000,682.238464 296.000000,716.869202 296.000000,752.000000 
z"/>
</svg>